# xmcd
#
# Track frame offsets: 
#        180
#        20144
#        41567
#        62907
#        80309
#        97584
#        127751
#        142173
#        156522
#        173896
#        196472
#        210841
#        228335
#        243126
#        260636
#        277869
#        295851
#
# Disc length: 4162 seconds
#
# Revision: 0
# Processed by: cddbd v1.5.2PL0 Copyright (c) Steve Scherf et al.
# Submitted via: ExactAudioCopy v0.95b4
#
DISCID=e8104011
DTITLE=The Moments - The Greatest Hits II
DYEAR=1994
DGENRE=R&B
TTITLE0=What's Your Name
TTITLE1=I Feel So Good Again
TTITLE2=Come Away With Me
TTITLE3=Needing You, Wanting You
TTITLE4=Baby I'm a Wanting You
TTITLE5=Sexy Mama
TTITLE6=Look At Me, I'm in Love
TTITLE7=Lucky You
TTITLE8=With You
TTITLE9=Inside of You
TTITLE10=To You, With Love
TTITLE11=All I Have
TTITLE12=Lovely Way She Loves
TTITLE13=Seven Days
TTITLE14=Love on a Two Way Street
TTITLE15=Girl I'm Gonna Miss You
TTITLE16=I Could Have Loved You
EXTD=
EXTT0=
EXTT1=
EXTT2=
EXTT3=
EXTT4=
EXTT5=
EXTT6=
EXTT7=
EXTT8=
EXTT9=
EXTT10=
EXTT11=
EXTT12=
EXTT13=
EXTT14=
EXTT15=
EXTT16=
PLAYORDER=
